<svg width="800" height="400" viewBox="0 0 800 400" xmlns="http://www.w3.org/2000/svg"><mask id="satori_om-id"><rect x="0" y="0" width="800" height="400" fill="#fff"/></mask><rect x="0" y="0" width="800" height="400" fill="#fff"/><clipPath id="satori_cp-id-0"><rect x="272" y="33" width="256" height="256"/></clipPath><mask id="satori_om-id-0"><rect x="272" y="33" width="256" height="256" fill="#fff"/></mask><image x="272" y="33" width="256" height="256" href="data:image/svg+xml;utf8,%3Csvg  class=%22w-8 h-8 text-primary%22 xmlns=%22http://www.w3.org/2000/svg%22 width=%22null%22 height=%22null%22 viewBox=%220 0 256 256%22%3E%3Cpath fill=%22black%22 d=%22M224 74h-18V64a22 22 0 0 0-22-22H40a22 22 0 0 0-22 22v96a22 22 0 0 0 22 22h114v10a22 22 0 0 0 22 22h48a22 22 0 0 0 22-22V96a22 22 0 0 0-22-22M40 170a10 10 0 0 1-10-10V64a10 10 0 0 1 10-10h144a10 10 0 0 1 10 10v10h-18a22 22 0 0 0-22 22v74Zm194 22a10 10 0 0 1-10 10h-48a10 10 0 0 1-10-10V96a10 10 0 0 1 10-10h48a10 10 0 0 1 10 10Zm-100 16a6 6 0 0 1-6 6H88a6 6 0 0 1 0-12h40a6 6 0 0 1 6 6m80-96a6 6 0 0 1-6 6h-16a6 6 0 0 1 0-12h16a6 6 0 0 1 6 6%22%3E%3C/path%3E%3C/svg%3E" preserveAspectRatio="none" clip-path="url(#satori_cp-id-0)" mask="url(#satori_om-id-0)"/><mask id="satori_om-id-0-0"><rect x="272" y="33" width="0" height="256" fill="#fff"/></mask><mask id="satori_om-id-1"><rect x="307" y="329" width="187" height="38" fill="#fff"/></mask><path fill="black" d="M317.3 360L317.3 360L309.0 360L309.0 336.7L317.3 336.7Q320.9 336.7 323.4 338.1Q325.9 339.5 327.3 342.1Q328.7 344.7 328.7 348.3L328.7 348.3Q328.7 352.0 327.3 354.6Q325.9 357.2 323.4 358.6Q320.8 360 317.3 360ZM313.9 340.9L313.9 355.8L317.1 355.8Q319.3 355.8 320.7 355.0Q322.2 354.2 323.0 352.6Q323.8 350.9 323.8 348.3L323.8 348.3Q323.8 345.8 323.0 344.1Q322.2 342.5 320.8 341.7Q319.3 340.9 317.1 340.9L317.1 340.9L313.9 340.9ZM340.2 360.3L340.2 360.3Q337.5 360.3 335.5 359.2Q333.6 358.1 332.5 356.1Q331.5 354.1 331.5 351.4L331.5 351.4Q331.5 348.7 332.5 346.6Q333.6 344.6 335.5 343.5Q337.4 342.3 340.0 342.3L340.0 342.3Q341.7 342.3 343.2 342.9Q344.7 343.4 345.8 344.5Q346.9 345.6 347.5 347.3Q348.2 349.0 348.2 351.2L348.2 351.2L348.2 352.5L333.4 352.5L333.4 349.5L343.6 349.5Q343.6 348.5 343.2 347.7Q342.7 346.9 341.9 346.4Q341.1 345.9 340.0 345.9L340.0 345.9Q338.9 345.9 338.1 346.4Q337.3 346.9 336.8 347.8Q336.3 348.6 336.3 349.7L336.3 349.7L336.3 352.5Q336.3 353.8 336.8 354.8Q337.3 355.7 338.1 356.2Q339.0 356.7 340.2 356.7L340.2 356.7Q341.0 356.7 341.7 356.5Q342.4 356.3 342.9 355.8Q343.3 355.4 343.6 354.7L343.6 354.7L348.1 355Q347.7 356.6 346.7 357.8Q345.6 359.0 344.0 359.7Q342.3 360.3 340.2 360.3ZM362.0 342.5L367.1 342.5L361.0 360L355.6 360L349.5 342.5L354.6 342.5L358.2 355.0L358.4 355.0L362.0 342.5ZM374.4 360L369.6 360L369.6 342.5L374.4 342.5L374.4 360ZM372.0 340.3L372.0 340.3Q370.9 340.3 370.2 339.6Q369.4 338.9 369.4 337.8L369.4 337.8Q369.4 336.8 370.2 336.1Q370.9 335.4 372.0 335.4L372.0 335.4Q373.1 335.4 373.9 336.1Q374.6 336.8 374.6 337.8L374.6 337.8Q374.6 338.9 373.9 339.6Q373.1 340.3 372.0 340.3ZM386.2 360.3L386.2 360.3Q383.5 360.3 381.6 359.2Q379.6 358.1 378.6 356.0Q377.6 354.0 377.6 351.3L377.6 351.3Q377.6 348.7 378.6 346.6Q379.7 344.6 381.6 343.5Q383.5 342.3 386.2 342.3L386.2 342.3Q388.4 342.3 390.2 343.1Q391.9 344.0 392.9 345.5Q393.9 347.0 394.0 349L394.0 349L389.4 349Q389.2 347.7 388.4 346.9Q387.6 346.1 386.2 346.1L386.2 346.1Q385.1 346.1 384.3 346.7Q383.4 347.3 383.0 348.5Q382.5 349.6 382.5 351.3L382.5 351.3Q382.5 352.9 383.0 354.1Q383.4 355.3 384.3 355.9Q385.1 356.5 386.2 356.5L386.2 356.5Q387.1 356.5 387.7 356.2Q388.4 355.8 388.8 355.2Q389.3 354.5 389.4 353.6L389.4 353.6L394.0 353.6Q393.9 355.6 392.9 357.1Q391.9 358.6 390.2 359.5Q388.5 360.3 386.2 360.3ZM405.0 360.3L405.0 360.3Q402.4 360.3 400.4 359.2Q398.5 358.1 397.4 356.1Q396.4 354.1 396.4 351.4L396.4 351.4Q396.4 348.7 397.4 346.6Q398.5 344.6 400.4 343.5Q402.3 342.3 404.9 342.3L404.9 342.3Q406.6 342.3 408.1 342.9Q409.6 343.4 410.7 344.5Q411.8 345.6 412.4 347.3Q413.1 349.0 413.1 351.2L413.1 351.2L413.1 352.5L398.3 352.5L398.3 349.5L408.5 349.5Q408.5 348.5 408.0 347.7Q407.6 346.9 406.8 346.4Q406.0 345.9 404.9 345.9L404.9 345.9Q403.8 345.9 403.0 346.4Q402.1 346.9 401.7 347.8Q401.2 348.6 401.2 349.7L401.2 349.7L401.2 352.5Q401.2 353.8 401.7 354.8Q402.1 355.7 403.0 356.2Q403.9 356.7 405.1 356.7L405.1 356.7Q405.9 356.7 406.6 356.5Q407.3 356.3 407.7 355.8Q408.2 355.4 408.5 354.7L408.5 354.7L413.0 355Q412.6 356.6 411.6 357.8Q410.5 359.0 408.9 359.7Q407.2 360.3 405.0 360.3ZM413.4 336.7L418.9 336.7L424.5 354.4L424.7 354.4L430.4 336.7L435.8 336.7L427.8 360L421.4 360L413.4 336.7ZM443.4 360L438.5 360L438.5 342.5L443.4 342.5L443.4 360ZM440.9 340.3L440.9 340.3Q439.9 340.3 439.1 339.6Q438.3 338.9 438.3 337.8L438.3 337.8Q438.3 336.8 439.1 336.1Q439.9 335.4 440.9 335.4L440.9 335.4Q442.0 335.4 442.8 336.1Q443.6 336.8 443.6 337.8L443.6 337.8Q443.6 338.9 442.8 339.6Q442.0 340.3 440.9 340.3ZM455.2 360.3L455.2 360.3Q452.5 360.3 450.5 359.2Q448.6 358.1 447.6 356.1Q446.5 354.1 446.5 351.4L446.5 351.4Q446.5 348.7 447.6 346.6Q448.6 344.6 450.5 343.5Q452.4 342.3 455.0 342.3L455.0 342.3Q456.7 342.3 458.2 342.9Q459.7 343.4 460.8 344.5Q461.9 345.6 462.6 347.3Q463.2 349.0 463.2 351.2L463.2 351.2L463.2 352.5L448.4 352.5L448.4 349.5L458.6 349.5Q458.6 348.5 458.2 347.7Q457.7 346.9 456.9 346.4Q456.1 345.9 455.1 345.9L455.1 345.9Q454.0 345.9 453.1 346.4Q452.3 346.9 451.8 347.8Q451.3 348.6 451.3 349.7L451.3 349.7L451.3 352.5Q451.3 353.8 451.8 354.8Q452.3 355.7 453.1 356.2Q454.0 356.7 455.2 356.7L455.2 356.7Q456.1 356.7 456.7 356.5Q457.4 356.3 457.9 355.8Q458.4 355.4 458.6 354.7L458.6 354.7L463.1 355Q462.7 356.6 461.7 357.8Q460.6 359.0 459.0 359.7Q457.3 360.3 455.2 360.3ZM474.8 360L469.6 360L464.9 342.5L469.8 342.5L472.5 354.3L472.7 354.3L475.5 342.5L480.3 342.5L483.1 354.2L483.3 354.2L486.0 342.5L490.8 342.5L486.1 360L481.0 360L478.0 349.0L477.8 349.0L474.8 360Z "/></svg>